# xmcd
#
# Track frame offsets: 
#        150
#        10052
#        22271
#        36249
#        50744
#        65183
#        79217
#        91909
#        105442
#        119050
#        131341
#        146970
#        160094
#        171136
#
# Disc length: 2428 seconds
#
# Revision: 0
# Processed by: cddbd v1.5.2PL0 Copyright (c) Steve Scherf et al.
# Submitted via: ExactAudioCopy v0.95a4
#
DISCID=c6097a0e
DTITLE=Judy Coder - Yodels!
DYEAR=2008
DGENRE=Country
TTITLE0=Mockingbird Yodel
TTITLE1=I Want to be a Cowboy's Sweetheart
TTITLE2=Pride of the Prairie
TTITLE3=Shine On Rocky Mountain Moonlight
TTITLE4=Out on the Lone Prairie
TTITLE5=There's a a Love Knot in My Lariat
TTITLE6=The Mourning Dove Song
TTITLE7=Rodeo Sweetheart
TTITLE8=Marahon Yodel
TTITLE9=Yodellin' Tex
TTITLE10=Yodel, Sweet Molly
TTITLE11=I Only Want a Buddy
TTITLE12=Cowboy Yodel
TTITLE13=Singing on the Trail
EXTD=
EXTT0=
EXTT1=
EXTT2=
EXTT3=
EXTT4=
EXTT5=
EXTT6=
EXTT7=
EXTT8=
EXTT9=
EXTT10=
EXTT11=
EXTT12=
EXTT13=
PLAYORDER=
